<svg width="124" height="16" fill="none" xmlns="http://www.w3.org/2000/svg"><path fill-rule="evenodd" clip-rule="evenodd" d="M57.78 4.912c-.62-.45-1.361-.674-2.227-.674-1.283 0-2.285.443-3.008 1.328V0h-1.826v15h1.67l.088-1.201c.729.93 1.76 1.396 3.095 1.396.853 0 1.589-.228 2.207-.683.619-.463 1.087-1.097 1.406-1.905.326-.813.489-1.738.489-2.773v-.205c0-1.08-.163-2.025-.489-2.832-.319-.814-.787-1.442-1.406-1.885zm-.596 1.914c.442.71.664 1.644.664 2.803v.205c0 1.133-.228 2.057-.684 2.773-.45.71-1.133 1.065-2.05 1.065-.613 0-1.133-.15-1.563-.45-.423-.299-.759-.7-1.006-1.2v-4.62c.24-.507.57-.908.986-1.2.423-.3.944-.45 1.563-.45.957 0 1.653.358 2.09 1.074zM9.41 14.58c.788-.417 1.37-.898 1.748-1.445V7.92H5.992v1.514h3.281v3.203c-.26.293-.625.54-1.093.742-.47.195-1.15.293-2.041.293-.808 0-1.517-.209-2.13-.625-.605-.417-1.077-1.019-1.415-1.807-.332-.787-.498-1.719-.498-2.793V7.305c0-1.647.315-2.923.947-3.828.631-.905 1.589-1.358 2.871-1.358 1.016 0 1.79.26 2.324.781.54.515.882 1.195 1.026 2.041h1.894c-.189-1.328-.723-2.386-1.601-3.173C8.684.98 7.467.586 5.904.586c-1.21 0-2.246.267-3.105.8-.853.535-1.5 1.306-1.944 2.315C.413 4.704.191 5.911.191 7.324v1.123c0 1.387.251 2.591.752 3.614.508 1.015 1.208 1.793 2.1 2.334.898.533 1.927.8 3.086.8 1.406 0 2.5-.205 3.281-.615zM15.875.88c-.189-.195-.453-.293-.791-.293-.339 0-.602.098-.791.293a1.045 1.045 0 00-.273.742c0 .293.09.537.273.733.189.188.452.283.791.283.338 0 .602-.095.791-.283a.994.994 0 00.293-.733c0-.3-.098-.547-.293-.742zm-1.719 3.555V15h1.826V4.434h-1.826zM23.346 15c-.417.13-.883.195-1.397.195-.736 0-1.328-.221-1.777-.664-.443-.443-.664-1.162-.664-2.158V5.811h-1.924V4.434h1.924V1.865h1.826v2.569h1.973V5.81h-1.973v6.572c0 .501.104.84.313 1.015.208.17.491.254.85.254.136 0 .286-.01.448-.029.163-.026.293-.052.39-.078l.01 1.455zm13.281 0V.781h-1.895v6.114h-7.148V.78h-1.895V15h1.895V8.418h7.148V15h1.895zM47.975 4.434V15h-1.739l-.029-1.045c-.703.827-1.735 1.24-3.096 1.24-1.087 0-1.936-.319-2.548-.957-.613-.638-.919-1.634-.919-2.988V4.434h1.827v6.836c0 .878.179 1.5.537 1.865.364.358.83.537 1.396.537 1.367 0 2.282-.511 2.744-1.533V4.434h1.827zm74.992.79c-.612-.657-1.472-.986-2.578-.986-.56 0-1.078.114-1.553.342a3.638 3.638 0 00-1.231.986V0h-2.949v15h2.949V7.48c.346-.572.912-.859 1.7-.859.553 0 .963.13 1.23.39.274.261.41.71.41 1.348V15h2.95V8.379c0-1.445-.31-2.497-.928-3.154zM65.389 8.038c.696.378 1.526.723 2.49 1.035.749.241 1.315.466 1.7.674.383.208.647.426.79.654.143.228.215.511.215.85 0 .456-.18.824-.537 1.104-.352.28-.876.42-1.572.42-.88 0-1.556-.18-2.032-.538-.468-.364-.703-.953-.703-1.767h-3.076c0 1.035.277 1.91.83 2.627a4.967 4.967 0 002.149 1.582c.885.345 1.829.517 2.832.517 1.048 0 1.96-.156 2.734-.468.781-.313 1.383-.765 1.807-1.358.423-.599.634-1.312.634-2.139 0-1.145-.39-2.083-1.172-2.812-.774-.736-1.96-1.348-3.554-1.836-.944-.293-1.64-.59-2.09-.889-.45-.306-.674-.677-.674-1.113 0-.293.082-.557.244-.79.17-.242.417-.43.743-.567.331-.137.732-.205 1.2-.205.736 0 1.293.179 1.67.537.385.351.577.827.577 1.425h3.056c0-.859-.218-1.62-.654-2.285-.436-.67-1.051-1.188-1.846-1.552-.794-.372-1.709-.557-2.744-.557-1.028 0-1.943.166-2.744.498-.8.326-1.429.791-1.885 1.396-.449.6-.674 1.293-.674 2.08 0 .788.209 1.469.625 2.042.417.572.97 1.051 1.66 1.435zm12.646 2.637h6.68v-1.25c0-1.055-.182-1.97-.547-2.744-.365-.782-.899-1.384-1.602-1.807-.703-.423-1.552-.635-2.548-.635-1.023 0-1.908.235-2.657.703a4.512 4.512 0 00-1.718 1.934c-.398.827-.596 1.768-.596 2.822v.371c0 .944.212 1.807.635 2.588.43.781 1.041 1.4 1.836 1.856.8.455 1.741.683 2.822.683.957 0 1.79-.182 2.5-.547.716-.364 1.26-.813 1.63-1.347l-1.415-1.631a2.947 2.947 0 01-1.114.87c-.43.188-.898.282-1.406.282-.683 0-1.243-.192-1.68-.576-.436-.39-.71-.915-.82-1.572zm3.31-3.565c.307.332.466.785.48 1.358V8.7h-3.76c.097-.65.302-1.162.615-1.533.319-.371.758-.557 1.318-.557.599 0 1.048.166 1.348.498zm13.516 5.284c0 .598.036 1.084.108 1.455.071.37.179.7.322.986V15h-2.959a3.135 3.135 0 01-.283-.947c-.67.761-1.553 1.142-2.647 1.142-.664 0-1.27-.136-1.816-.41a3.285 3.285 0 01-1.299-1.133 2.931 2.931 0 01-.469-1.63c0-1.114.414-1.97 1.24-2.569.827-.605 2.045-.908 3.653-.908h1.201v-.596c0-.488-.124-.866-.371-1.133-.247-.273-.618-.41-1.113-.41-.45 0-.801.108-1.055.323-.247.208-.371.507-.371.898h-2.95c0-.632.186-1.204.557-1.719.378-.514.909-.921 1.592-1.22.69-.3 1.485-.45 2.383-.45.833 0 1.572.14 2.217.42.644.28 1.149.7 1.513 1.26.365.56.547 1.243.547 2.05v4.425zm-4.795.566c.43 0 .808-.091 1.133-.274.326-.188.563-.416.713-.683v-1.768H90.79c-.683 0-1.195.15-1.533.45-.332.293-.498.677-.498 1.152 0 .332.117.602.351.81.241.209.56.313.957.313zm12.579-8.682a3.165 3.165 0 00-.479-.039c-.501 0-.954.127-1.357.381-.398.254-.726.619-.987 1.094l-.088-1.28h-2.773V15h2.95V8.174c.318-.697 1.005-1.045 2.06-1.045.319 0 .667.026 1.045.078l.039-2.852a2.304 2.304 0 00-.41-.078zm10.517 7.022a3.57 3.57 0 01-.586 2.011 3.971 3.971 0 01-1.592 1.387c-.664.332-1.403.498-2.216.498-1.062 0-1.96-.23-2.696-.693a4.34 4.34 0 01-1.66-1.904c-.364-.808-.547-1.726-.547-2.754V9.59c0-1.029.183-1.947.547-2.754a4.355 4.355 0 011.65-1.904c.736-.463 1.631-.694 2.686-.694.866 0 1.631.17 2.295.508a3.643 3.643 0 011.562 1.445c.372.625.557 1.364.557 2.217h-2.764c-.006-.52-.159-.95-.459-1.289-.299-.338-.716-.508-1.25-.508-.716 0-1.207.27-1.474.81-.267.535-.401 1.257-.401 2.169v.254c0 .93.131 1.66.391 2.187.267.528.768.791 1.504.791.508 0 .915-.136 1.221-.41.306-.273.462-.644.468-1.113h2.764z" fill="#fff"/></svg>